<svg xmlns="http://www.w3.org/2000/svg" xmlns:xlink="http://www.w3.org/1999/xlink" viewBox="0 0 709.45 391.7"><defs><style>.cls-1{fill:url(#未命名的渐变_5);}.cls-2{fill:#e4e9ef;}.cls-3{fill:url(#未命名的渐变_5-2);}.cls-4{opacity:0.5;}.cls-5,.cls-6{fill:none;stroke:#fff;stroke-width:3px;}.cls-10,.cls-5,.cls-6{stroke-miterlimit:10;}.cls-6{stroke-dasharray:11.95 11.95;}.cls-7{fill:url(#未命名的渐变_8);}.cls-8{fill:url(#未命名的渐变_8-2);}.cls-9{fill:url(#未命名的渐变_8-3);}.cls-10{stroke-width:0.75px;fill:url(#未命名的渐变_8-4);stroke:url(#未命名的渐变_8-5);}</style><linearGradient id="未命名的渐变_5" x1="368.28" y1="379.51" x2="500.36" y2="241.29" gradientUnits="userSpaceOnUse"><stop offset="0" stop-color="#17ead9"/><stop offset="1" stop-color="#6078ea"/></linearGradient><linearGradient id="未命名的渐变_5-2" x1="170.93" y1="122.35" x2="374.75" y2="122.35" xlink:href="#未命名的渐变_5"/><linearGradient id="未命名的渐变_8" x1="580.87" y1="322.39" x2="617.98" y2="359.51" gradientUnits="userSpaceOnUse"><stop offset="0.01" stop-color="#17ead9"/><stop offset="1" stop-color="#6078ea"/></linearGradient><linearGradient id="未命名的渐变_8-2" x1="105.19" y1="287.85" x2="160.88" y2="287.85" xlink:href="#未命名的渐变_8"/><linearGradient id="未命名的渐变_8-3" x1="633.79" y1="157.18" x2="690.76" y2="157.18" xlink:href="#未命名的渐变_8"/><linearGradient id="未命名的渐变_8-4" x1="24.25" y1="126.56" x2="70.11" y2="126.56" xlink:href="#未命名的渐变_8"/><linearGradient id="未命名的渐变_8-5" x1="23.87" y1="126.56" x2="70.48" y2="126.56" xlink:href="#未命名的渐变_8"/></defs><title>资源 1</title><g id="图层_2" data-name="图层 2"><g id="图层_1-2" data-name="图层 1"><path class="cls-1" d="M504.05,235.67H452.5a3.12,3.12,0,0,0-2,2.92v.75a5.91,5.91,0,0,0,1.45,3.88,20.91,20.91,0,0,1,5.17,13.37c.23,11.91-9.83,21.49-21.73,21.49H433.5A21.07,21.07,0,0,1,412.43,257h0a21,21,0,0,1,5.15-13.77,5.94,5.94,0,0,0,1.48-3.9v-.75a3.12,3.12,0,0,0-2-2.92H365.47a5,5,0,0,0-5,5v50.46a3.13,3.13,0,0,1-3.13,3.12h-.75a5.94,5.94,0,0,1-3.9-1.47,21,21,0,0,0-13.77-5.15h0a21.07,21.07,0,0,0-21.07,21.07v1.85c0,11.9,9.58,22,21.49,21.72a20.94,20.94,0,0,0,13.37-5.16,5.89,5.89,0,0,1,3.88-1.45h.75a3.13,3.13,0,0,1,3.13,3.13v50.45a5,5,0,0,0,5,5H504.05a5,5,0,0,0,5-5V240.66A5,5,0,0,0,504.05,235.67Z"/><path class="cls-2" d="M287.25,197a17,17,0,0,1,12.89,28.23,9.94,9.94,0,0,0-2.45,6.52v.75a7.14,7.14,0,0,0,7.13,7.13h50.46a1,1,0,0,1,1,1v49.55a2,2,0,0,1-.95-.46,25,25,0,0,0-41.46,18.94v1.85c0,14.19,11.25,25.73,25.08,25.73h.48a25,25,0,0,0,15.93-6.14,1.88,1.88,0,0,1,.92-.44v49.55a1,1,0,0,1-1,1H216.7a1,1,0,0,1-1-1V240.66a1,1,0,0,1,1-1h50.46a7.14,7.14,0,0,0,7.13-7.13v-.75a9.88,9.88,0,0,0-2.43-6.5,17.08,17.08,0,0,1-4.19-10.83,16.63,16.63,0,0,1,4.85-12A18.13,18.13,0,0,1,285.4,197h1.85m0-4H285.4c-11.9,0-22,9.59-21.73,21.49a21,21,0,0,0,5.17,13.38,5.89,5.89,0,0,1,1.45,3.88v.75a3.13,3.13,0,0,1-3.13,3.13H216.7a5,5,0,0,0-5,5V379.23a5,5,0,0,0,5,5H355.28a5,5,0,0,0,5-5V327.68a3.12,3.12,0,0,0-2.92-2h-.75a5.89,5.89,0,0,0-3.88,1.45,20.92,20.92,0,0,1-13.37,5.16h-.41c-11.72,0-21.08-10-21.08-21.73v-1.85a21.07,21.07,0,0,1,21.07-21.07h0a21,21,0,0,1,13.77,5.15,5.94,5.94,0,0,0,3.9,1.47h.75a3.11,3.11,0,0,0,2.92-2V240.66a5,5,0,0,0-5-5H304.82a3.13,3.13,0,0,1-3.13-3.13v-.75a5.9,5.9,0,0,1,1.48-3.9A21.05,21.05,0,0,0,287.25,193Z"/><path class="cls-2" d="M464.59,4a1,1,0,0,1,.49.13l120,69.29a1,1,0,0,1,.46.6,1,1,0,0,1-.1.76l-69.28,120a1,1,0,0,1-.87.49,1,1,0,0,1-.49-.13l-43.7-25.23a7.07,7.07,0,0,0-3.56-1,7.14,7.14,0,0,0-6.17,3.57l-.38.65a9.92,9.92,0,0,0-1.14,6.85A16.8,16.8,0,0,1,443,200.13a18.1,18.1,0,0,1-9-2.42l-1.6-.92a17,17,0,0,1,2.94-30.89,10,10,0,0,0,5.39-4.43l.37-.64a7.14,7.14,0,0,0-2.61-9.74l-43.7-25.23a1,1,0,0,1-.46-.6,1,1,0,0,1,.1-.75l24.78-42.92a2.08,2.08,0,0,1,.59.88,25.05,25.05,0,0,0,45.38,4.32l.92-1.59a26.17,26.17,0,0,0,2.54-20,24.54,24.54,0,0,0-11.82-15.06,25,25,0,0,0-12-3.1,25.24,25.24,0,0,0-4.82.47,2.22,2.22,0,0,1-.37,0,1.82,1.82,0,0,1-.65-.12L463.73,4.5a1,1,0,0,1,.86-.5m0-4a5,5,0,0,0-4.33,2.5L434.49,47.14A3.11,3.11,0,0,0,436,50.36l.65.38a5.9,5.9,0,0,0,3,.79,6.1,6.1,0,0,0,1.13-.11,21.16,21.16,0,0,1,4.06-.39,20.87,20.87,0,0,1,10.11,2.61c10.43,5.75,13.7,19.25,7.75,29.56l-.92,1.59a21.08,21.08,0,0,1-28.79,7.72h0a21,21,0,0,1-9.35-11.35A6,6,0,0,0,421,77.93l-.65-.37a3.11,3.11,0,0,0-1.55-.42,3.2,3.2,0,0,0-2,.72L391,122.51a5,5,0,0,0,1.83,6.81l43.7,25.23a3.13,3.13,0,0,1,1.14,4.28l-.37.65a6,6,0,0,1-3.23,2.64,21,21,0,0,0-3.63,38.13l1.6.93a22.07,22.07,0,0,0,11,2.95,20.8,20.8,0,0,0,20.74-24.87,5.87,5.87,0,0,1,.69-4.08l.37-.65a3.12,3.12,0,0,1,4.27-1.15l43.7,25.23a5,5,0,0,0,6.82-1.82l69.29-120A5,5,0,0,0,587.09,70L467.08.67A5,5,0,0,0,464.59,0Z"/><path class="cls-3" d="M213.08,212l49.8-13.34a3.12,3.12,0,0,0,1.21-3.35l-.2-.72a5.84,5.84,0,0,0-2.4-3.37A21,21,0,0,1,253,179.66c-3.31-11.44,3.92-23.3,15.42-26.38l1.78-.48a21.08,21.08,0,0,1,25.81,14.9h0a21,21,0,0,1-1.41,14.64,6,6,0,0,0-.41,4.15l.19.72a3.12,3.12,0,0,0,2.73,2.3l49.79-13.34a5,5,0,0,0,3.53-6.12l-13.06-48.74a3.13,3.13,0,0,1,2.21-3.83l.72-.19a6,6,0,0,1,4.15.41,21,21,0,0,0,14.64,1.41h0A21.08,21.08,0,0,0,374,93.3l-.48-1.78C370.47,80,358.61,72.79,347.17,76.1a20.92,20.92,0,0,0-11.58,8.45,5.9,5.9,0,0,1-3.37,2.4l-.73.2a3.12,3.12,0,0,1-3.83-2.21L314.6,36.2a5,5,0,0,0-6.11-3.53L174.63,68.54a5,5,0,0,0-3.52,6.11L207,208.5A5,5,0,0,0,213.08,212Z"/><g class="cls-4"><path class="cls-5" d="M164.33,322.15a47.76,47.76,0,0,1-4.5,4"/><path class="cls-6" d="M149.5,332.07a45.67,45.67,0,1,1,22.12-19.4"/><path class="cls-5" d="M168.29,317.64a45.17,45.17,0,0,1-4,4.51"/></g><g class="cls-4"><path class="cls-5" d="M79.48,155.85a46.31,46.31,0,0,1-4.51,4"/><path class="cls-6" d="M64.64,165.77a45.67,45.67,0,1,1,22.12-19.4"/><path class="cls-5" d="M83.43,151.35a46.26,46.26,0,0,1-4,4.5"/></g><g class="cls-4"><path class="cls-5" d="M624.36,376.82a46.64,46.64,0,0,1-4.51,4"/><path class="cls-6" d="M609.53,386.74a45.67,45.67,0,1,1,22.12-19.4"/><path class="cls-5" d="M628.32,372.31a45.17,45.17,0,0,1-4,4.51"/></g><path class="cls-7" d="M624,318.27a1.43,1.43,0,0,0-.82-.17,2.74,2.74,0,0,0-1.49.5c-.66.16-58.61,23.11-60.6,23.94a2.59,2.59,0,0,0-1.81,2.31,2,2,0,0,0,1.15,1.82c1.65.66,17.67,7.76,17.67,7.76h.17l1.32-2.81-15.69-6.93,53-21.63c-4.46,4.13-30.38,28.73-31.53,29.88a6.25,6.25,0,0,0-2.32,4.3l-1.32,13.2v.17l3,.33v-.17c0-.49,1.33-12,1.33-13a2.94,2.94,0,0,1,1-2.15c.33-.33,29.39-27.9,33.35-31.7l-10.73,35.17c-1,3.47-1.82,5.78-1.82,5.95a.35.35,0,0,1-.33.33h-.16c-.5-.17-17-7.27-17.18-7.27H590l-1.32,2.81h.16c.17,0,15.85,6.77,17.34,7.43a3.16,3.16,0,0,0,1.32.33,3.47,3.47,0,0,0,3.3-2.64c.17-.66,2.48-8.09,5.12-16.84,4-12.88,8.42-27.58,8.59-28.07v-.17c.33-.82.66-1.82-.5-2.64Z"/><g class="cls-4"><path class="cls-5" d="M694.57,191.48a46.64,46.64,0,0,1-4.51,4"/><path class="cls-6" d="M679.74,201.4A45.67,45.67,0,1,1,701.86,182"/><path class="cls-5" d="M698.53,187a45.17,45.17,0,0,1-4,4.51"/></g><path class="cls-8" d="M157.4,284.37l-10.45,7a6.94,6.94,0,0,0-2.44-5.26,12.16,12.16,0,1,0-14.76-1.7h-6.38a10.45,10.45,0,1,0-14.55.89,6.94,6.94,0,0,0-3.63,6.07v13.92a7,7,0,0,0,7,7H140a7,7,0,0,0,7-7v-1.74l10.45,8.7a3.48,3.48,0,0,0,3.48-3.48V287.85a3.48,3.48,0,0,0-3.48-3.48Zm-48.73-7a7,7,0,1,1,7,7,7,7,0,0,1-7-7Zm34.8,27.84a3.48,3.48,0,0,1-3.48,3.48H112.15a3.48,3.48,0,0,1-3.48-3.48V291.33a3.48,3.48,0,0,1,3.48-3.48H140a3.48,3.48,0,0,1,3.48,3.48Zm-5.22-20.86a8.72,8.72,0,1,1,8.73-8.72,8.72,8.72,0,0,1-8.73,8.72Zm19.15,24.34L147,300v-5.22l10.45-7Z"/><path class="cls-9" d="M639.64,147.21l6.09-14.33a4.38,4.38,0,0,1,5.74-2.32c.77.33,1.67.68,2.73,1.1l1.86.71c1.89.71,2.63,1,3.08,1.18l3.44-3.45a4.85,4.85,0,0,1,6.85,0l13.08,13.08a4.87,4.87,0,0,1,1.41,4h4a2.86,2.86,0,0,1,2.85,2.85v32.76a2.86,2.86,0,0,1-2.85,2.85H636.63a2.85,2.85,0,0,1-2.84-2.85V150.06a2.85,2.85,0,0,1,2.84-2.85Zm3.27,0h2.61l11.3-11.33-1.82-.7-1.89-.72c-.94-.36-1.88-.74-2.82-1.13a1.36,1.36,0,0,0-1.79.72Zm7.27,0h30.37a1.54,1.54,0,0,0-.35-1.69l-13.08-13.08a1.55,1.55,0,0,0-2.2,0Zm-13.55,2.85v32.76h51.28V150.06Zm39.88,21.37a5.7,5.7,0,1,1,5.7-5.7,5.71,5.71,0,0,1-5.7,5.7Zm0-2.85a2.85,2.85,0,1,0-2.84-2.85,2.85,2.85,0,0,0,2.84,2.85Z"/><path class="cls-10" d="M66.49,141.58c2,0,3.62-1.16,3.62-3.16V107.79a3.63,3.63,0,0,0-3.62-3.62H27.87a3.61,3.61,0,0,0-3.62,3.62v30.63c0,2,1.62,3.16,3.62,3.16H39.25l6.22,6.65a2.43,2.43,0,0,0,3.43,0l6.19-6.65ZM54.1,139.17h-.36l-6.55,7.35s-6.56-7.35-6.56-7.35H27.87c-.67,0-1.21-.09-1.21-.75V107.79a1.21,1.21,0,0,1,.35-.85,1.17,1.17,0,0,1,.86-.35H66.49a1.2,1.2,0,0,1,1.2,1.2v30.63c0,.66-.53.75-1.2.75ZM37.52,125.9a2.42,2.42,0,1,0-2.41-2.42,2.41,2.41,0,0,0,2.41,2.42Zm9.66,0a2.42,2.42,0,1,0-2.42-2.42,2.41,2.41,0,0,0,2.42,2.42Zm9.65,0a2.42,2.42,0,1,0-2.41-2.42,2.41,2.41,0,0,0,2.41,2.42Z"/></g></g></svg>